<svg viewBox="0 0 24 24" xmlns="http://www.w3.org/2000/svg"><path d="m16.854 4.5 2.646 0 4 12 -23 0 4 -12 2.666 0" fill="none" stroke="#000000" stroke-linecap="round" stroke-linejoin="round" stroke-width="1"></path><path d="M23.5 16.5V21a1.5 1.5 0 0 1 -1.5 1.5H2A1.5 1.5 0 0 1 0.5 21v-4.5" fill="none" stroke="#000000" stroke-linecap="round" stroke-linejoin="round" stroke-width="1"></path><path d="m3.166 8.5 17.667 0" fill="none" stroke="#000000" stroke-linecap="round" stroke-linejoin="round" stroke-width="1"></path><path d="M17.281 5.842a0.5 0.5 0 0 1 -0.475 0.658H7.2a0.5 0.5 0 0 1 -0.475 -0.658L7.5 3.5h8.64a0.5 0.5 0 0 1 0.474 0.342Z" fill="none" stroke="#000000" stroke-linecap="round" stroke-linejoin="round" stroke-width="1"></path><path d="M4.5 4.5V2A1.5 1.5 0 0 1 6 0.5h12A1.5 1.5 0 0 1 19.5 2v2.5" fill="none" stroke="#000000" stroke-linecap="round" stroke-linejoin="round" stroke-width="1"></path><path d="m3.5 22.5 0 1" fill="none" stroke="#000000" stroke-linecap="round" stroke-linejoin="round" stroke-width="1"></path><path d="m20.5 22.5 0 1" fill="none" stroke="#000000" stroke-linecap="round" stroke-linejoin="round" stroke-width="1"></path></svg>