<svg xmlns="http://www.w3.org/2000/svg" fill="none" viewBox="0 0 24 24"><path stroke="#000000" stroke-linecap="round" stroke-linejoin="round" stroke-miterlimit="10" d="M17 5.25c1.7 0 3 1.3 3 3v9c0 1.7 -1.3 3 -3 3H7c-1.7 0 -3 -1.3 -3 -3v-9c0 -1.7 1.3 -3 3 -3h10v0Z" stroke-width="1"></path><path stroke="#000000" stroke-linecap="round" stroke-linejoin="round" stroke-miterlimit="10" d="M3 9.65002h3.2" stroke-width="1"></path><path stroke="#000000" stroke-linecap="round" stroke-linejoin="round" stroke-miterlimit="10" d="M3 15.65h3.2" stroke-width="1"></path><path stroke="#000000" stroke-linecap="round" stroke-linejoin="round" stroke-miterlimit="10" d="M16 0.75H8v4.5h8V0.75Z" stroke-width="1"></path><path stroke="#000000" stroke-linecap="round" stroke-linejoin="round" stroke-miterlimit="10" d="M17 20.25H7v3h10v-3Z" stroke-width="1"></path><path stroke="#000000" stroke-linecap="round" stroke-linejoin="round" stroke-miterlimit="10" d="M6 0.75h12" stroke-width="1"></path><path stroke="#000000" stroke-linecap="round" stroke-linejoin="round" stroke-miterlimit="10" d="M11.3 8.75c0.9 0.9 0.9 2.4 0.3 3.4 -0.6 0.1 -1.1 -0.5 -1.1 -0.9 -0.79999 0.4 -1.29999 1.3 -1.29999 2.3 0 1.5 1.19999 2.7 2.69999 2.7 1.5 0 2.7 -1.2 2.7 -2.7 0.2 -2.7 -1.4 -4.1 -3.3 -4.8Z" stroke-width="1"></path><path stroke="#000000" stroke-linecap="round" stroke-linejoin="round" stroke-miterlimit="10" d="M17.8 9.65002H21" stroke-width="1"></path><path stroke="#000000" stroke-linecap="round" stroke-linejoin="round" stroke-miterlimit="10" d="M17.8 15.65H21" stroke-width="1"></path></svg>