<svg viewBox="0 0 24 24" xmlns="http://www.w3.org/2000/svg"><path d="m13.767 8.111 -5.655 5.657" fill="none" stroke="#000000" stroke-linecap="round" stroke-linejoin="round" stroke-width="1"></path><path d="m15.889 10.232 -5.656 5.657" fill="none" stroke="#000000" stroke-linecap="round" stroke-linejoin="round" stroke-width="1"></path><path d="M10.232 20.132a1.5 1.5 0 1 1 -2.12 2.121l-6.365 -6.364a1.5 1.5 0 0 1 2.121 -2.121" fill="none" stroke="#000000" stroke-linecap="round" stroke-linejoin="round" stroke-width="1"></path><path d="M2.454 12.354a1.5 1.5 0 0 1 2.122 -2.122l9.192 9.193a1.5 1.5 0 1 1 -2.122 2.122Z" fill="none" stroke="#000000" stroke-linecap="round" stroke-linejoin="round" stroke-width="1"></path><path d="M10.232 4.576a1.5 1.5 0 0 1 2.122 -2.122l9.192 9.193a1.5 1.5 0 1 1 -2.121 2.121Z" fill="none" stroke="#000000" stroke-linecap="round" stroke-linejoin="round" stroke-width="1"></path><path d="M6.7 20.839a1.5 1.5 0 0 1 -2.122 2.122L1.04 19.425A1.5 1.5 0 0 1 3.161 17.3" fill="none" stroke="#000000" stroke-linecap="round" stroke-linejoin="round" stroke-width="1"></path><path d="M13.769 3.868a1.5 1.5 0 1 1 2.122 -2.121l6.362 6.364a1.5 1.5 0 1 1 -2.121 2.122" fill="none" stroke="#000000" stroke-linecap="round" stroke-linejoin="round" stroke-width="1"></path><path d="M17.305 3.161a1.5 1.5 0 0 1 2.12 -2.121l3.536 3.536A1.5 1.5 0 0 1 20.839 6.7" fill="none" stroke="#000000" stroke-linecap="round" stroke-linejoin="round" stroke-width="1"></path></svg>