<svg id="Light" xmlns="http://www.w3.org/2000/svg" viewBox="0 0 24 24"><defs></defs><title>lift</title><path d="M2 0.5h20s1 0 1 1v21s0 1 -1 1H2s-1 0 -1 -1v-21s0 -1 1 -1" fill="none" stroke="#000000" stroke-linecap="round" stroke-linejoin="round" stroke-width="1"></path><path d="m12 23.5 0 -16" fill="none" stroke="#000000" stroke-linecap="round" stroke-linejoin="round" stroke-width="1"></path><path d="M19 23.5V8a0.5 0.5 0 0 0 -0.5 -0.5h-13A0.5 0.5 0 0 0 5 8v15.5" fill="none" stroke="#000000" stroke-linecap="round" stroke-linejoin="round" stroke-width="1"></path><path d="m7 5 1.146 -1.146a0.5 0.5 0 0 1 0.708 0L10 5" fill="none" stroke="#000000" stroke-linecap="round" stroke-linejoin="round" stroke-width="1"></path><path d="m14 3.5 1.146 1.146a0.5 0.5 0 0 0 0.708 0L17 3.5" fill="none" stroke="#000000" stroke-linecap="round" stroke-linejoin="round" stroke-width="1"></path></svg>