<svg id="Light" xmlns="http://www.w3.org/2000/svg" viewBox="0 0 24 24"><defs></defs><title>appliances-microwave</title><path d="M2.5 2.5h19s2 0 2 2v12s0 2 -2 2h-19s-2 0 -2 -2v-12s0 -2 2 -2" fill="none" stroke="#000000" stroke-linecap="round" stroke-linejoin="round" stroke-width="1"></path><path d="m2.5 21.5 0 -3" fill="none" stroke="#000000" stroke-linecap="round" stroke-linejoin="round" stroke-width="1"></path><path d="m21.5 21.5 0 -3" fill="none" stroke="#000000" stroke-linecap="round" stroke-linejoin="round" stroke-width="1"></path><path d="M4.5 4.5h8s2 0 2 2v8s0 2 -2 2h-8s-2 0 -2 -2v-8s0 -2 2 -2" fill="none" stroke="#000000" stroke-linecap="round" stroke-linejoin="round" stroke-width="1"></path><path d="m16.5 2.5 0 16" fill="none" stroke="#000000" stroke-linecap="round" stroke-linejoin="round" stroke-width="1"></path><path d="M19 14.5h2s0.5 0 0.5 0.5v1s0 0.5 -0.5 0.5h-2s-0.5 0 -0.5 -0.5v-1s0 -0.5 0.5 -0.5" fill="none" stroke="#000000" stroke-linecap="round" stroke-linejoin="round" stroke-width="1"></path><path d="m5 13.5 7 0" fill="none" stroke="#000000" stroke-linecap="round" stroke-linejoin="round" stroke-width="1"></path><path d="M8.5 13.5a3.233 3.233 0 0 0 2.854 -2.762 1 1 0 0 0 -0.972 -1.238H6.618a1 1 0 0 0 -0.972 1.238A3.233 3.233 0 0 0 8.5 13.5Z" fill="none" stroke="#000000" stroke-linecap="round" stroke-linejoin="round" stroke-width="1"></path><path d="M19 4.5h2s0.5 0 0.5 0.5v7s0 0.5 -0.5 0.5h-2s-0.5 0 -0.5 -0.5V5s0 -0.5 0.5 -0.5" fill="none" stroke="#000000" stroke-linecap="round" stroke-linejoin="round" stroke-width="1"></path></svg>