<svg viewBox="0 0 24 24" xmlns="http://www.w3.org/2000/svg"><path d="M18.499 10.811a2.5 2.5 0 1 0 5 0 2.5 2.5 0 1 0 -5 0Z" fill="none" stroke="#000000" stroke-linecap="round" stroke-linejoin="round" stroke-width="1"></path><path d="m7.542 14.077 4.885 -2.271a0.5 0.5 0 0 0 0.21 -0.725l-1.578 -2.439a2.5 2.5 0 0 1 1.664 -3.82l7.015 -1.238a1.5 1.5 0 1 1 0.522 2.954l-5.53 0.976a0.5 0.5 0 0 0 -0.333 0.764l3.269 5.053" fill="none" stroke="#000000" stroke-linecap="round" stroke-linejoin="round" stroke-width="1"></path><path d="M23.5 20.327c-2.5 0.521 -4.06 -1.979 -4.06 -1.979h0a4.4 4.4 0 0 1 -3.626 2.052 3.822 3.822 0 0 1 -3.314 -2.052h0A5.282 5.282 0 0 1 8.575 20.4a4.6 4.6 0 0 1 -3.615 -2.052h0s-2 2.541 -4.455 2.02" fill="none" stroke="#000000" stroke-linecap="round" stroke-linejoin="round" stroke-width="1"></path><path d="M23.5 16.827c-2.5 0.521 -4.06 -1.979 -4.06 -1.979h0a4.4 4.4 0 0 1 -3.626 2.052 3.822 3.822 0 0 1 -3.314 -2.052h0A5.282 5.282 0 0 1 8.575 16.9a4.6 4.6 0 0 1 -3.615 -2.052h0s-2 2.541 -4.455 2.02" fill="none" stroke="#000000" stroke-linecap="round" stroke-linejoin="round" stroke-width="1"></path></svg>