<svg id="Light" xmlns="http://www.w3.org/2000/svg" viewBox="0 0 24 24"><defs></defs><title>stove-gas-1</title><path d="M17 17.805a1.5 1.5 0 1 0 3 0 1.5 1.5 0 1 0 -3 0" fill="none" stroke="#000000" stroke-linecap="round" stroke-linejoin="round" stroke-width="1"></path><path d="M4 17.805a1.5 1.5 0 1 0 3 0 1.5 1.5 0 1 0 -3 0" fill="none" stroke="#000000" stroke-linecap="round" stroke-linejoin="round" stroke-width="1"></path><path d="M1.5 14.305h21s1 0 1 1v5s0 1 -1 1h-21s-1 0 -1 -1v-5s0 -1 1 -1" fill="none" stroke="#000000" stroke-linecap="round" stroke-linejoin="round" stroke-width="1"></path><path d="m18.5 12.305 0 2" fill="none" stroke="#000000" stroke-linecap="round" stroke-linejoin="round" stroke-width="1"></path><path d="M20.5 12.305a1 1 0 0 1 1 1v1" fill="none" stroke="#000000" stroke-linecap="round" stroke-linejoin="round" stroke-width="1"></path><path d="M16.5 12.305a1 1 0 0 0 -1 1v1" fill="none" stroke="#000000" stroke-linecap="round" stroke-linejoin="round" stroke-width="1"></path><path d="m5.5 12.305 0 2" fill="none" stroke="#000000" stroke-linecap="round" stroke-linejoin="round" stroke-width="1"></path><path d="M7.5 12.305a1 1 0 0 1 1 1v1" fill="none" stroke="#000000" stroke-linecap="round" stroke-linejoin="round" stroke-width="1"></path><path d="M3.5 12.305a1 1 0 0 0 -1 1v1" fill="none" stroke="#000000" stroke-linecap="round" stroke-linejoin="round" stroke-width="1"></path><path d="M18.377 2.719a0.25 0.25 0 0 0 -0.318 0.359 2.948 2.948 0 0 1 0.082 2.908 1.926 1.926 0 0 1 -0.659 -0.812 0.252 0.252 0 0 0 -0.348 -0.14 2.584 2.584 0 0 0 -1.513 2.392 2.879 2.879 0 0 0 5.758 0 5.3 5.3 0 0 0 -3.002 -4.707Z" fill="none" stroke="#000000" stroke-linecap="round" stroke-linejoin="round" stroke-width="1"></path><path d="M5.377 2.719a0.25 0.25 0 0 0 -0.318 0.359 2.948 2.948 0 0 1 0.082 2.908 1.926 1.926 0 0 1 -0.659 -0.812 0.252 0.252 0 0 0 -0.348 -0.14 2.584 2.584 0 0 0 -1.513 2.392 2.879 2.879 0 1 0 5.758 0 5.3 5.3 0 0 0 -3.002 -4.707Z" fill="none" stroke="#000000" stroke-linecap="round" stroke-linejoin="round" stroke-width="1"></path></svg>