<svg xmlns="http://www.w3.org/2000/svg" viewBox="0 0 24 24"><defs></defs><title>vintage-tv-1</title><path d="M2.5 5.496h19s1 0 1 1v14s0 1 -1 1h-19s-1 0 -1 -1v-14s0 -1 1 -1" fill="none" stroke="#000000" stroke-linecap="round" stroke-linejoin="round" stroke-width="1"></path><path d="m6.5 21.496 -3 2" fill="none" stroke="#000000" stroke-linecap="round" stroke-linejoin="round" stroke-width="1"></path><path d="m17.5 21.496 3 2" fill="none" stroke="#000000" stroke-linecap="round" stroke-linejoin="round" stroke-width="1"></path><path d="M19.5 17.565a0.5 0.5 0 0 1 -0.438 0.5A60.686 60.686 0 0 1 12 18.5a60.686 60.686 0 0 1 -7.062 -0.442 0.5 0.5 0 0 1 -0.438 -0.5V9.443a0.5 0.5 0 0 1 0.438 -0.5A60.62 60.62 0 0 1 12 8.5a60.62 60.62 0 0 1 7.062 0.443 0.5 0.5 0 0 1 0.438 0.5Z" fill="none" stroke="#000000" stroke-linecap="round" stroke-linejoin="round" stroke-width="1"></path><path d="m13.5 0.504 3 4.992 3 -4.992" fill="none" stroke="#000000" stroke-linecap="round" stroke-linejoin="round" stroke-width="1"></path></svg>