<svg data-v-423bf9ae="" xmlns="http://www.w3.org/2000/svg" viewBox="0 0 452 112" class="iconLeft"><!----><!----><!----><g data-v-423bf9ae="" id="dbee9b45-57dd-4c3e-be0f-043ecc945cca" fill="#ffffff" transform="matrix(4.62606038369033,0,0,4.62606038369033,117.43171868231434,8.855477217697299)"><path d="M4.24 3.78C2.34 3.78 0.84 4.87 0.84 6.62C0.84 8.40 1.97 9.09 4.07 9.55L4.20 9.58C5.49 9.86 6.22 10.12 6.22 10.98C6.22 11.69 5.66 12.32 4.47 12.32C2.98 12.32 2.30 11.51 2.30 10.30L2.30 10.08L0.48 10.08L0.48 10.39C0.48 12.68 2.02 13.97 4.41 13.97C6.50 13.97 8.04 12.87 8.04 10.89C8.04 9.11 6.85 8.40 4.83 7.95L4.70 7.92C3.53 7.66 2.66 7.49 2.66 6.58C2.66 5.92 3.26 5.43 4.24 5.43C5.36 5.43 6.08 5.92 6.08 7.03L6.08 7.31L7.87 7.31L7.87 6.89C7.87 4.93 6.34 3.78 4.24 3.78ZM9.10 4.82C9.10 5.53 9.65 6.02 10.35 6.02C11.05 6.02 11.59 5.53 11.59 4.82C11.59 4.10 11.05 3.61 10.35 3.61C9.65 3.61 9.10 4.10 9.10 4.82ZM11.23 6.83L9.46 6.83L9.46 13.78L11.23 13.78ZM12.91 6.83L12.91 13.78L14.67 13.78L14.67 9.55C14.67 8.68 15.20 8.26 15.93 8.26C16.60 8.26 17.07 8.62 17.07 9.27L17.07 13.78L18.83 13.78L18.83 9.55C18.83 8.68 19.36 8.26 20.09 8.26C20.76 8.26 21.22 8.62 21.22 9.27L21.22 13.78L22.99 13.78L22.99 9.13C22.99 7.69 21.97 6.72 20.69 6.72C19.59 6.72 19.03 7.25 18.72 7.90L18.52 7.90C18.23 7.20 17.57 6.72 16.67 6.72C15.71 6.72 15.13 7.20 14.84 7.87L14.64 7.87L14.64 6.83ZM24.58 16.58L26.35 16.58L26.35 12.80L26.52 12.80C26.88 13.38 27.50 13.97 28.73 13.97C30.46 13.97 31.92 12.43 31.92 10.30C31.92 8.18 30.46 6.64 28.73 6.64C27.50 6.64 26.88 7.22 26.52 7.81L26.32 7.81L26.32 6.83L24.58 6.83ZM28.25 12.40C27.16 12.40 26.35 11.62 26.35 10.30C26.35 8.99 27.16 8.20 28.25 8.20C29.32 8.20 30.16 8.96 30.16 10.30C30.16 11.65 29.32 12.40 28.25 12.40ZM34.94 3.98L33.18 3.98L33.18 13.78L34.94 13.78ZM36.20 10.25C36.20 12.40 37.70 13.97 39.77 13.97C41.64 13.97 42.45 12.99 42.92 12.26L41.41 11.40C41.17 11.89 40.73 12.43 39.75 12.43C38.74 12.43 38.08 11.72 38.04 10.82L43.18 10.82L43.18 10.14C43.18 8.05 41.76 6.64 39.75 6.64C37.70 6.64 36.20 8.15 36.20 10.25ZM38.05 9.59C38.16 8.76 38.74 8.18 39.73 8.18C40.64 8.18 41.26 8.74 41.36 9.59ZM44.18 8.79C44.18 10.08 45.07 10.68 47.01 10.95L47.22 10.98C47.98 11.07 48.69 11.13 48.69 11.65C48.69 12.19 48.03 12.49 47.35 12.49C46.45 12.49 45.53 12.04 45.09 11.13L43.68 12.01C44.32 12.99 45.39 13.97 47.31 13.97C49.15 13.97 50.43 12.98 50.43 11.62C50.43 10.35 49.60 9.79 47.38 9.49L47.17 9.46C46.44 9.37 45.92 9.28 45.92 8.78C45.92 8.36 46.28 8.09 46.91 8.09C47.84 8.09 48.54 8.62 49.07 9.25L50.34 8.25C49.41 7.27 48.40 6.64 46.97 6.64C45.36 6.64 44.18 7.50 44.18 8.79ZM50.88 6.83L50.88 8.37L52.64 8.37L52.64 12.43C52.64 13.22 53.23 13.78 54.01 13.78L55.92 13.78L55.92 12.24L54.80 12.24C54.54 12.24 54.40 12.10 54.40 11.82L54.40 8.37L56.31 8.37L56.31 6.83L54.40 6.83L54.40 4.68L52.64 4.68L52.64 6.83ZM57.29 8.43L58.72 9.35C59.15 8.62 59.72 8.15 60.65 8.15C61.60 8.15 62.10 8.67 62.10 9.32L62.10 9.49L59.32 9.80C58.03 9.94 57.15 10.70 57.15 11.80C57.15 13.13 58.18 13.97 59.75 13.97C61.25 13.97 61.77 13.24 61.94 12.94L62.13 12.94L62.13 13.78L63.87 13.78L63.87 9.34C63.87 7.71 62.64 6.64 60.75 6.64C59.05 6.64 58.11 7.39 57.29 8.43ZM59.00 11.70C59.00 11.30 59.32 11.06 59.98 10.98L62.10 10.72L62.10 10.84C62.10 11.79 61.42 12.52 60.19 12.52C59.40 12.52 59.00 12.18 59.00 11.70ZM70.41 6.83L68.59 12.10L68.42 12.10L66.60 6.83L64.69 6.83L67.59 14.45L66.70 16.58L68.60 16.58L72.31 6.83Z"></path></g><!----><g data-v-423bf9ae="" id="675eaceb-76e8-4e8b-886b-65328d9b0229" transform="matrix(1.1111111111111112,0,0,1.1111111111111112,-5.399113443162712,0.44444444444444287)" stroke="none" fill="#FFD009"><path d="M94.844 54.281l-5.167-3.919-25.765 19.534-9.258-7.019 25.767-19.534-5.164-3.917-25.763 19.539-21.735-16.477-5.169 3.915 21.739 16.479-12.269 9.304-21.738-16.483-5.165 3.921L58.414 100l5.163-3.919-11.937-9.048 12.271-9.305 11.936 9.049 5.166-3.916-11.936-9.049 25.767-19.531zM46.478 83.116l-9.256-7.019 12.268-9.303 9.257 7.018-12.269 9.304z"></path><path d="M44.408 34.908l6.053 16.474 6.055-16.477c6.945-2.49 11.928-9.113 11.928-16.92C68.443 8.053 60.391 0 50.461 0c-9.935 0-17.988 8.053-17.988 17.985 0 7.808 4.982 14.434 11.935 16.923zm5.763-27.392l3.612 3.678V9.32h2.808v4.737l3.607 3.682h-2.407v8.723h-6.215V21.25h-2.809v5.212h-6.215v-8.723h-2.407L50.171 7.516z"></path></g><!----></svg>