<svg width="100" height="112" viewBox="0 0 100 112" fill="none" xmlns="http://www.w3.org/2000/svg">
<g id="675eaceb-76e8-4e8b-886b-65328d9b0229">
<path id="Vector" d="M99.6522 60.3122L93.9111 55.9578L65.2833 77.6622L54.9967 69.8633L83.6267 48.1589L77.8889 43.8067L49.2633 65.5167L25.1133 47.2089L19.37 51.5589L43.5244 69.8689L29.8922 80.2067L5.73889 61.8922L0 66.2489L59.1744 111.111L64.9111 106.757L51.6478 96.7033L65.2822 86.3644L78.5444 96.4189L84.2845 92.0678L71.0222 82.0133L99.6522 60.3122ZM45.9122 92.3511L35.6278 84.5522L49.2589 74.2156L59.5444 82.0133L45.9122 92.3511Z" fill="#FFD009"/>
<path id="Vector_2" d="M43.6122 38.7867L50.3378 57.0911L57.0655 38.7833C64.7822 36.0167 70.3189 28.6578 70.3189 19.9833C70.3178 8.94778 61.3711 0 50.3378 0C39.2989 0 30.3511 8.94778 30.3511 19.9833C30.3511 28.6589 35.8867 36.0211 43.6122 38.7867ZM50.0156 8.35111L54.0289 12.4378V10.3556H57.1489V15.6189L61.1567 19.71H58.4822V29.4022H51.5767V23.6111H48.4555V29.4022H41.55V19.71H38.8755L50.0156 8.35111Z" fill="#FFD009"/>
</g>
</svg>
